# xmcd
#
# Track frame offsets:
#	150
#	18070
#	34257
#	48955
#	64330
#	77927
#	93215
#	110402
#	124435
#	139205
#
# Disc length: 2157 seconds
#
# Revision: 0
# Processed by: cddbd v1.5.2PL0 Copyright (c) Steve Scherf et al.
# Submitted via: audiograbber 1.83.01
#
DISCID=85086b0a
DTITLE=Charlie Daniels - Renegade
DYEAR=1991
DGENRE=Country
TTITLE0=Renegade
TTITLE1=Talk To Me Fiddle
TTITLE2=Little Folks
TTITLE3=Honky Tonk Life
TTITLE4=Layla
TTITLE5=The Twang Factor
TTITLE6=Fathers And Sons
TTITLE7=What My Baby Sees In Me
TTITLE8=Willie Jones
TTITLE9=Let Freedom Ring
EXTD=
EXTT0=
EXTT1=
EXTT2=
EXTT3=
EXTT4=
EXTT5=
EXTT6=
EXTT7=
EXTT8=
EXTT9=
PLAYORDER=
